<?xml version="1.0" encoding="utf-8"?>
<!-- Generator: Adobe Illustrator 27.4.1, SVG Export Plug-In . SVG Version: 6.00 Build 0)  -->
<svg version="1.1" id="extension" xmlns="http://www.w3.org/2000/svg" xmlns:xlink="http://www.w3.org/1999/xlink" x="0px" y="0px"
	 viewBox="0 0 160 160" style="enable-background:new 0 0 160 160;" xml:space="preserve">
<path d="M131.8,67.6c-3.4-3.4-7.5-5.1-12.4-5.1H115V45.8c0-10.1-3.3-18.6-9.9-25.5S90.1,10,79.9,10c-6.8,0-12.8,1.6-18.2,4.9
	c-5.4,3.2-9.5,7.6-12.4,13S45,39.3,45,45.8v16.7h-4.4c-4.8,0-9,1.7-12.4,5.1c-3.4,3.4-5.1,7.5-5.1,12.4v52.5c0,4.8,1.7,9,5.1,12.4
	s7.5,5.1,12.4,5.1h78.8c4.8,0,9-1.7,12.4-5.1s5.1-7.5,5.1-12.4V80C136.9,75.2,135.2,71,131.8,67.6L131.8,67.6z M85.1,106.3v16.8
	c0,1.4-0.5,2.6-1.5,3.6c-1,1-2.2,1.5-3.6,1.5s-2.6-0.5-3.6-1.5c-1-1-1.5-2.2-1.5-3.6v-16.8c-3.4-2-5.1-5-5.1-8.8c0-2.9,1-5.3,3-7.3
	c2-2,4.4-3,7.3-3s5.3,1,7.3,3c2,2,3,4.4,3,7.3C90.3,101.3,88.6,104.3,85.1,106.3L85.1,106.3z M105,62.5L105,62.5l-50,0l0,0V45.8
	c0-5,1-9.3,3.1-13.3c2-3.8,4.9-6.8,8.7-9.1c3.8-2.3,8.1-3.4,13-3.4c7.4,0,13.3,2.4,18,7.2c4.8,5,7.1,11.1,7.1,18.6V62.5z"/>
</svg>
