<?xml version="1.0" encoding="utf-8"?>
<!-- Generator: Adobe Illustrator 26.0.3, SVG Export Plug-In . SVG Version: 6.00 Build 0)  -->
<svg version="1.1" id="Layer_1" xmlns="http://www.w3.org/2000/svg" xmlns:xlink="http://www.w3.org/1999/xlink" x="0px" y="0px"
	 viewBox="0 0 160 160" style="enable-background:new 0 0 160 160;" xml:space="preserve">
<style type="text/css">
	.st0{fill:#1D1D1B;}
</style>
<path class="st0" d="M148.6,43.9c-1.9-1.9-4.9-1.9-6.7,0c0,0,0,0,0,0l-61.7,62l-62-61.7c-1.7-2-4.7-2.2-6.7-0.5
	c-2,1.7-2.2,4.7-0.5,6.7c0.2,0.2,0.3,0.4,0.5,0.5l65.3,65c0,0,0,0.1,0.1,0.1c0.7,0.7,1.5,1.1,2.5,1.3c1.6,0.3,3.2-0.2,4.3-1.3
	l0.1-0.1l65-65.2C150.5,48.8,150.5,45.8,148.6,43.9C148.6,43.9,148.6,43.9,148.6,43.9z"/>
</svg>
