<?xml version="1.0" encoding="UTF-8" standalone="no"?>
<!DOCTYPE svg PUBLIC "-//W3C//DTD SVG 1.1//EN" "http://www.w3.org/Graphics/SVG/1.1/DTD/svg11.dtd">
<svg width="100%" height="100%" viewBox="0 0 702 702" version="1.1"
    xmlns="http://www.w3.org/2000/svg" xmlnsXlink="http://www.w3.org/1999/xlink"
    xmlSpace="preserve" xmlnsSerif="http://www.serif.com/"
    style="fill-rule:evenodd;clip-rule:evenodd;stroke-linejoin:round;stroke-miterlimit:2;"><circle cx="349.362" cy="350.782" r="350.81" style="fill:evenodd;"/><g id="dataCatalog"><g><path d="M178.657,205.619l0,200.773c0,10.688 9.397,19.355 20.986,19.355l347.047,-0c9.709,-0 17.227,-7.222 17.227,-15.889l-0,-181.417c-0,-8.089 -7.204,-15.022 -15.975,-15.022l-180.414,-0c-3.132,-0 -5.951,-1.156 -7.83,-3.178l-31.635,-28.888c-1.88,-1.733 -4.699,-2.889 -7.518,-2.889l-113.072,0.578c-15.974,0 -28.816,11.844 -28.816,26.577Z" style="fill:#d5ffe8;fill-rule:nonzero;"/><path d="M567.988,209.663c-5.324,-4.91 -12.528,-7.799 -20.359,-7.799l-179.474,-0l-31.322,-28.888c-4.385,-4.045 -10.336,-6.356 -16.288,-6.356l-113.072,0.578c-22.865,-0 -41.345,17.044 -41.345,38.132l0,200.773c0,17.044 15.035,30.91 33.515,30.91l347.047,-0c16.6,-0 29.755,-12.422 29.755,-27.444l0,-181.128c0,-6.933 -3.132,-13.578 -8.457,-18.778Zm-16.913,200.195c-0,1.156 -0.627,2.311 -1.253,3.178c-0.94,0.866 -2.193,1.155 -3.446,1.155l-347.046,0c-2.193,0 -4.385,-0.866 -5.951,-2.311c-1.567,-1.444 -2.506,-3.466 -2.506,-5.488l-0,-200.773c-0,-8.377 7.204,-15.022 16.287,-15.022l112.446,-0.577l31.008,28.599c4.386,4.044 10.65,6.355 16.914,6.355l180.101,0c0.94,0 1.88,0.289 2.506,0.867c0.626,0.578 0.94,1.444 0.94,2.311l-0,181.706Z" style="fill:#45a564;fill-rule:nonzero;"/><path d="M134.493,303.261l0,200.772c0,10.689 9.397,19.355 20.986,19.355l347.047,0c9.709,0 17.227,-7.222 17.227,-15.888l-0,-181.417c-0,-8.089 -7.204,-14.733 -15.974,-15.022l-180.101,-0c-2.819,-0 -5.638,-1.156 -7.831,-3.178l-31.948,-28.888c-1.879,-1.733 -4.698,-2.889 -7.517,-2.889l-113.072,0.867c-15.661,-0 -28.503,11.844 -28.817,26.288Z" style="fill:#d1ebff;fill-rule:nonzero;"/><path d="M523.825,307.594c-5.325,-4.911 -12.529,-7.8 -20.046,-7.8l-179.475,0l-31.322,-28.888c-4.385,-4.044 -10.336,-6.355 -16.287,-6.355l-113.385,0.578c-22.552,-0 -41.032,17.044 -41.032,37.843l-0,201.061c-0,17.044 15.034,30.911 33.514,30.911l347.047,-0c16.6,-0 29.756,-12.422 29.756,-27.444l-0,-181.417c-0.314,-6.934 -3.133,-13.578 -8.77,-18.489Zm-16.601,199.906c-0,1.156 -0.626,2.311 -1.253,3.178c-0.94,0.866 -2.192,1.444 -3.445,1.155l-347.047,0c-2.192,0 -4.385,-0.866 -5.951,-2.311c-1.566,-1.444 -2.506,-3.466 -2.506,-5.489l0,-200.772c0,-8.089 7.204,-14.733 16.288,-14.733l112.445,-0.578l31.009,28.6c4.385,4.044 10.649,6.355 16.914,6.355l180.101,-0c1.879,-0 3.445,1.444 3.445,3.178l-0,181.417Z" style="fill:#456ba5;fill-rule:nonzero;"/></g></g></svg>