<?xml version="1.0" encoding="utf-8"?>
<!-- Generator: Adobe Illustrator 27.5.0, SVG Export Plug-In . SVG Version: 6.00 Build 0)  -->
<svg version="1.1" id="extension" xmlns="http://www.w3.org/2000/svg" xmlnsXlink="http://www.w3.org/1999/xlink" x="0px" y="0px"
	 viewBox="0 0 160 160" style="enable-background:new 0 0 160 160;" xmlSpace="preserve">
<path d="M148.4,101.6c-1-1.1-2.3-1.6-3.8-1.6s-2.8,0.6-3.8,1.6c-1,1.1-1.6,2.4-1.6,3.8v30.5c0,0.9-0.3,1.7-0.9,2.3
	c-0.6,0.6-1.4,0.9-2.3,0.9H24.1c-0.9,0-1.7-0.3-2.3-0.9s-0.9-1.4-0.9-2.3v-30.5c0-1.5-0.5-2.7-1.6-3.8c-1-1.1-2.3-1.6-3.8-1.6
	s-2.8,0.6-3.8,1.6S10,104,10,105.5v34.8c0,2.7,0.9,5,2.8,6.9c1.9,1.9,4.2,2.8,6.9,2.8h120.6c2.7,0,5-1,6.9-2.9
	c1.9-1.9,2.8-4.2,2.8-6.8v-34.8C150,104,149.5,102.7,148.4,101.6z"/>
<path d="M76.2,122.5c1,1,2.3,1.6,3.8,1.6s2.7-0.5,3.8-1.6L108,98.1c1.1-1,1.7-2.3,1.7-3.8s-0.6-2.7-1.6-3.8
	c-1.1-1.1-2.4-1.6-3.8-1.6s-2.7,0.6-3.8,1.7l-15.2,15V15.5c0-1.6-0.6-2.9-1.6-3.9c-1.1-1-2.4-1.6-3.8-1.6s-2.7,0.5-3.8,1.6
	s-1.6,2.3-1.6,3.9v90.2L59.5,90.5c-1.2-1-2.5-1.6-3.9-1.6s-2.7,0.6-3.8,1.6s-1.6,2.4-1.6,3.8s0.5,2.7,1.6,3.8L76.2,122.5L76.2,122.5
	z"/>
</svg>
