<?xml version="1.0" encoding="utf-8"?>
<!-- Generator: Adobe Illustrator 27.4.1, SVG Export Plug-In . SVG Version: 6.00 Build 0)  -->
<svg version="1.1" id="extension" xmlns="http://www.w3.org/2000/svg" xmlns:xlink="http://www.w3.org/1999/xlink" x="0px" y="0px"
	 viewBox="0 0 160 160" style="enable-background:new 0 0 160 160;" xml:space="preserve">
<path d="M81.4,12.4c0.5,0.1,1,0.1,1.4,0.3c0.4,0.1,0.9,0.3,1.3,0.5c0.4,0.2,0.8,0.4,1.2,0.6c0.4,0.2,0.8,0.5,1.2,0.8
	c0.4,0.3,0.7,0.7,1,1s0.6,0.7,0.9,1.1c0.3,0.4,0.5,0.8,0.7,1.2L105,50.8l36.4,5.3c1.8,0.3,3.4,1,4.9,2.2c1.4,1.2,2.5,2.7,3.1,4.5
	c1.3,3.7,0.4,7.1-2.4,10l-26.6,26.6l6.1,37c0.4,1.8,0.2,3.6-0.6,5.3c-0.8,1.7-1.9,3.1-3.5,4.2c-1.7,1.2-3.7,1.8-5.9,1.8
	c-0.8,0-1.6-0.1-2.4-0.3c-0.8-0.2-1.6-0.5-2.4-0.9L80,129.4l-31.8,17.1c-1.5,0.8-3,1.2-4.8,1.2h-1.1c-0.4,0-0.7-0.1-1-0.1
	c-0.3-0.1-0.6-0.2-1-0.3c-0.3-0.1-0.6-0.2-1-0.3c-0.3-0.1-0.6-0.3-1-0.5c-0.3-0.2-0.6-0.4-0.9-0.6c-1.5-1.1-2.7-2.5-3.5-4.2
	s-1-3.5-0.6-5.3l6.1-37L13.1,72.8c-2.9-2.9-3.7-6.2-2.4-10c0.6-1.8,1.7-3.3,3.1-4.5c1.4-1.2,3.1-1.9,4.9-2.2l36.4-5.3l15.8-32.9
	c0.8-1.7,2.1-3.1,3.7-4.1c1.6-1,3.4-1.5,5.5-1.5C80.5,12.3,81,12.4,81.4,12.4L81.4,12.4z"/>
</svg>
