<?xml version="1.0" encoding="utf-8"?>
<!-- Generator: Adobe Illustrator 27.4.1, SVG Export Plug-In . SVG Version: 6.00 Build 0)  -->
<svg version="1.1" id="extension" xmlns="http://www.w3.org/2000/svg" xmlnsXlink="http://www.w3.org/1999/xlink" x="0px" y="0px"
	 viewBox="0 0 160 160" style="enable-background:new 0 0 160 160;" xmlSpace="preserve">
<path d="M80,22.3h0.2l15.8,32.8l2.3,4.8l5.3,0.8l36.1,5.3l-26.3,26.3l-3.6,3.6l0.8,5.1l6.1,36.6h0h-0.1l0,0l-31.6-17.1L80,118
	l-4.7,2.5l-31.8,17l-0.1,0h0l6.1-36.6l0.8-5.1l-3.6-3.6L20.4,66l36.1-5.3l5.3-0.8l2.3-4.8l15.8-32.8L80,22.3 M80,12.4
	c-2,0-3.8,0.5-5.5,1.5s-2.9,2.4-3.7,4.1L55,50.8l-36.4,5.3c-1.8,0.3-3.5,1-4.9,2.2c-1.5,1.2-2.5,2.7-3.1,4.5
	c-1.3,3.7-0.5,7.1,2.5,10l26.6,26.6l-6.1,37c-0.4,1.8-0.2,3.6,0.6,5.3c0.8,1.7,1.9,3.1,3.5,4.2c0.3,0.2,0.6,0.4,0.9,0.6
	c0.3,0.2,0.6,0.3,1,0.5s0.6,0.2,1,0.3s0.6,0.2,1,0.3c0.3,0.1,0.7,0.1,1,0.1h1.1c1.7,0,3.3-0.4,4.8-1.2L80,129.4l31.6,17.1
	c0.8,0.4,1.6,0.8,2.5,0.9s1.6,0.3,2.4,0.3c2.2,0,4.1-0.6,5.9-1.8c1.5-1.1,2.7-2.5,3.5-4.2c0.8-1.7,1-3.5,0.6-5.3l-6.1-37l26.6-26.6
	c2.9-2.9,3.7-6.2,2.5-10c-0.6-1.8-1.7-3.3-3.1-4.5s-3.1-1.9-4.9-2.2l-36.4-5.3L89.1,18c-0.2-0.5-0.4-0.9-0.7-1.2
	c-0.3-0.4-0.6-0.7-0.9-1.1c-0.3-0.4-0.7-0.7-1-1c-0.4-0.3-0.8-0.6-1.2-0.8s-0.8-0.4-1.2-0.6c-0.4-0.2-0.8-0.3-1.3-0.5
	c-0.5-0.1-0.9-0.2-1.4-0.3C80.9,12.4,80.4,12.4,80,12.4L80,12.4z"/>
</svg>
