<?xml version="1.0" encoding="utf-8"?>
<!-- Generator: Adobe Illustrator 27.5.0, SVG Export Plug-In . SVG Version: 6.00 Build 0)  -->
<svg version="1.1" id="extension" xmlns="http://www.w3.org/2000/svg" 
xmlnsXlink="http://www.w3.org/1999/xlink" x="0px" y="0px"
	 viewBox="0 0 160 160" style="enable-background:new 0 0 160 160;" xmlSpace="preserve">
<path d="M150,87.8c0-8.3-6.3-14.9-14.4-15.1c-5.1-0.1-10.2-0.1-15.3,0c-1,0-2,0.3-2.9,0.8c-2.2,1.2-3.1,3.7-2.5,6.2
	c0.6,2.4,2.7,4.1,5.2,4.1c4.9,0,9.9,0,14.8,0c2.6,0,4.1,1.5,4.1,4.1c0,22.2,0,24.5,0,46.7c0,2.6-1.6,4.2-4.1,4.2
	c-36.6,0-73.3,0-109.9,0c-2.6,0-4.1-1.6-4.1-4.1c0-22.2,0-24.4,0-46.6c0-2.8,1.5-4.3,4.2-4.3c4.7,0,9.5,0,14.2,0
	c3.4,0,5.8-2.3,5.8-5.5c0-3.2-2.4-5.6-5.8-5.6c-4.9,0-9.8,0-14.7,0C16.4,72.8,10,79.3,10,87.8c0,22.4,0,24.7,0,47.1
	c0,1.2,0.1,2.5,0.4,3.7c1.6,6.9,7.4,11.4,14.5,11.4c18.4,0,36.7,0,55.1,0c18.3,0,36.6,0,54.8,0c8.8,0,15.2-6.5,15.2-15.5
	C150,112.3,150,110.1,150,87.8L150,87.8z"/>
<path d="M76.2,122.5c1,1,2.3,1.6,3.8,1.6s2.7-0.5,3.8-1.6L108,98.1c1.1-1,1.7-2.3,1.7-3.8s-0.6-2.7-1.6-3.8
	c-1.1-1.1-2.4-1.6-3.8-1.6s-2.7,0.6-3.8,1.7l-15.2,15V15.5c0-1.6-0.6-2.9-1.6-3.9c-1.1-1-2.4-1.6-3.8-1.6s-2.7,0.5-3.8,1.6
	s-1.6,2.3-1.6,3.9v90.2L59.5,90.5c-1.2-1-2.5-1.6-3.9-1.6s-2.7,0.6-3.8,1.6s-1.6,2.4-1.6,3.8s0.5,2.7,1.6,3.8L76.2,122.5L76.2,122.5
	z"/>
</svg>
