<?xml version="1.0" encoding="UTF-8" standalone="no"?>
<!DOCTYPE svg PUBLIC "-//W3C//DTD SVG 1.1//EN" "http://www.w3.org/Graphics/SVG/1.1/DTD/svg11.dtd">
<svg width="100%" height="100%" viewBox="0 0 705 705" version="1.1"
    xmlns="http://www.w3.org/2000/svg" xmlnsXlink="http://www.w3.org/1999/xlink"
    xmlSpace="preserve" xmlnsSerif="http://www.serif.com/"
    style="fill-rule:evenodd;clip-rule:evenodd;stroke-linejoin:round;stroke-miterlimit:2;"><circle cx="349.362" cy="350.783" r="350.808" style="fill:evenodd;"/><g id="Layer_1"><path d="M524.529,333.2l-68.971,0l0,28.188c0,14.783 -12.041,26.825 -26.825,26.825l-158.746,-0c-14.779,-0 -26.82,-12.042 -26.82,-26.825l-0,-28.188l-68.975,0c-3.284,0 -6.021,2.733 -6.021,6.292l-0,186.391c-0,3.288 2.737,6.296 6.021,6.296l350.337,0c3.288,0 6.025,-2.737 6.025,-6.296l0,-186.662c0,-3.288 -2.737,-6.021 -6.025,-6.021Zm-112.491,157.104l-122.892,0l-0,-57.75l122.892,0l-0,57.75Z" style="fill:#d6dbff;fill-rule:nonzero;"/><path d="M421.621,418.592l-144.517,-0l0,66.237c0,9.034 7.392,16.421 16.421,16.421l111.671,0c9.033,0 16.425,-7.387 16.425,-16.421l-0,-66.237Z" style="fill:#fff6c4;fill-rule:nonzero;"/><path d="M401.092,439.121l-0,41.604l-103.459,0l0,-41.604l103.459,-0m20.529,-20.529l-144.517,-0l0,66.237c0,9.034 7.392,16.421 16.421,16.421l111.671,0c9.033,0 16.425,-7.387 16.425,-16.421l-0,-66.237Z" style="fill:#84797d;fill-rule:nonzero;"/><path d="M540.133,333.746l-72.804,-168.329c-2.192,-5.2 -8.212,-7.663 -13.412,-5.2c-5.2,2.466 -7.663,8.212 -5.2,13.412l64.591,149.167l-68.15,-0l0,38.592c0,9.033 -7.391,16.425 -16.425,16.425l-158.746,-0c-9.033,-0 -16.42,-7.392 -16.42,-16.425l-0,-38.592l-67.88,-0l64.596,-149.167c2.188,-5.2 0,-11.221 -5.475,-13.412c-5.475,-2.188 -11.221,0.275 -13.412,5.2l-72.804,168.329c-0.55,1.367 -0.821,3.012 -0.821,4.654l-0,187.483c-0,9.034 7.387,16.425 16.421,16.425l350.337,0c9.034,0 16.425,-7.391 16.425,-16.425l0,-187.758c0,-1.367 -0.275,-3.012 -0.821,-4.379Zm-19.708,188.033l-342.129,0l-0,-178.454l54.742,0l-0,17.792c-0,20.525 16.695,36.95 36.95,36.95l158.745,-0c20.255,-0 36.95,-16.696 36.95,-36.95l0,-17.792l54.742,0l0,178.454Z" style="fill:#84797d;fill-rule:nonzero;"/><g><path d="M427.092,179.925l-154.642,0c-9.029,0 -16.421,7.392 -16.421,16.421l0,18.067l20.529,-0l0,-13.959l146.43,0l-0,13.959l20.529,-0l-0,-18.067c-0,-9.029 -7.392,-16.421 -16.425,-16.421Z" style="fill:#7b86d4;fill-rule:nonzero;"/><path d="M448.3,228.096l-196.792,-0c-9.029,-0 -16.421,7.392 -16.421,16.421l0,16.425l20.53,-0l-0,-12.317l188.304,0l-0,12.317l20.529,-0l-0,-16.425c0.275,-9.029 -7.117,-16.421 -16.15,-16.421Z" style="fill:#6370c8;fill-rule:nonzero;"/><path d="M485.392,309.113l-0,-17.792c-0,-9.034 -7.392,-16.421 -16.421,-16.421l-238.396,0c-9.033,0 -16.421,7.387 -16.421,16.421l0,17.791l20.525,0l0,-13.683l230.184,0l-0,13.683l20.529,0Z" style="fill:#5765c5;fill-rule:nonzero;"/></g></g></svg>