<?xml version="1.0" encoding="utf-8"?>
<!-- Generator: Adobe Illustrator 27.4.1, SVG Export Plug-In . SVG Version: 6.00 Build 0)  -->
<svg version="1.1" id="extension" xmlns="http://www.w3.org/2000/svg" xmlns:xlink="http://www.w3.org/1999/xlink" x="0px" y="0px"
	 viewBox="0 0 160 160" style="enable-background:new 0 0 160 160;" xml:space="preserve">
<g>
	<path fill="evenodd" d="M96.2,70.4c1.8,0,3.5-0.6,4.8-2l35.8-35.8l0.1,26.2c-0.1,1.9,0.5,3.5,1.8,4.8c1.3,1.3,2.9,1.9,4.8,1.9
		s3.5-0.6,4.8-1.9c1.3-1.3,1.9-2.8,1.8-4.8V16.5c0-1.8-0.6-3.3-1.9-4.6c-1.3-1.3-2.8-1.9-4.6-1.9h-42.3c-1.8,0-3.3,0.6-4.6,1.9
		c-1.3,1.3-1.9,2.8-2,4.7s0.6,3.4,1.8,4.7c1.3,1.3,2.8,1.9,4.8,2h26.3L91.7,59.1c-1.4,1.4-2,2.9-2,4.8c0,1.8,0.6,3.3,1.9,4.6
		C92.8,69.7,94.4,70.4,96.2,70.4L96.2,70.4z"/>
	<path fill="evenodd" d="M137.5,88.6v49H22.8V22.5h48.6V10H22.8c-3.5,0-6.5,1.2-9,3.7S10,19,10,22.5v115.1c0,3.5,1.3,6.5,3.8,9
		s5.5,3.8,9,3.8h114.7c3.5,0,6.5-1.3,9-3.8s3.8-5.5,3.8-9v-49L137.5,88.6L137.5,88.6z"/>
	<path fill="evenodd" d="M120.5,115.8h-81c-3.3,0-6,2.7-6,6s2.7,6,6,6h81c3.3,0,6-2.7,6-6S123.8,115.8,120.5,115.8z"/>
	<path fill="evenodd" d="M120.5,93.7h-81c-3.3,0-6,2.7-6,6s2.7,6,6,6h81c3.3,0,6-2.7,6-6S123.8,93.7,120.5,93.7z"/>
</g>
</svg>
