<?xml version="1.0" encoding="utf-8"?>
<!-- Generator: Adobe Illustrator 27.4.1, SVG Export Plug-In . SVG Version: 6.00 Build 0)  -->
<svg version="1.1" id="extension" xmlns="http://www.w3.org/2000/svg" xmlns:xlink="http://www.w3.org/1999/xlink" x="0px" y="0px"
	 viewBox="0 0 160 160" style="enable-background:new 0 0 160 160;" xml:space="preserve">
<path fill="evenodd" d="M90.3,97.5c0,3.8-1.7,6.8-5.1,8.8v16.8c0,1.4-0.5,2.6-1.5,3.6c-1,1-2.2,1.5-3.6,1.5s-2.6-0.5-3.6-1.5c-1-1-1.5-2.2-1.5-3.6
	v-16.8c-3.4-2-5.1-5-5.1-8.8c0-2.9,1-5.3,3-7.3s4.4-3,7.3-3s5.3,1,7.3,3C89.3,92.2,90.3,94.6,90.3,97.5L90.3,97.5L90.3,97.5z"/>
<path fill="evenodd" d="M131.8,67.6c-3.4-3.4-7.5-5.1-12.4-5.1H55l0,0V45.8c0-5,1-9.3,3.1-13.3c2-3.8,4.9-6.8,8.7-9.1c3.8-2.3,8.1-3.4,13-3.4
	c7.4,0,13.3,2.4,18,7.2c1.1,1.1,2,2.3,2.8,3.5l0,0c0.9,1.3,2.4,2.2,4.1,2.2c2.8,0,5-2.3,5-5c0-0.8-0.2-1.6-0.6-2.3
	c0,0-0.1-0.1-0.1-0.2c-0.1-0.2-2.7-3.7-4.1-5.1C98.5,13.4,90.1,10,79.9,10c-6.8,0-12.8,1.6-18.2,4.9c-5.4,3.2-9.5,7.6-12.4,13
	S45,39.3,45,45.8v16.7h-4.4c-4.8,0-9,1.7-12.4,5.1c-3.4,3.4-5.1,7.5-5.1,12.4v52.5c0,4.8,1.7,9,5.1,12.4s7.5,5.1,12.4,5.1h78.8
	c4.8,0,9-1.7,12.4-5.1s5.1-7.5,5.1-12.4V80C136.9,75.2,135.1,71,131.8,67.6L131.8,67.6z M126.9,132.5c0,2.2-0.7,3.8-2.2,5.3
	c-1.5,1.5-3.1,2.2-5.3,2.2H40.6c-2.2,0-3.8-0.7-5.3-2.2s-2.2-3.1-2.2-5.3V80c0-2.2,0.7-3.8,2.2-5.3s3.1-2.2,5.3-2.2h78.8
	c2.2,0,3.8,0.7,5.3,2.2c1.5,1.5,2.2,3.1,2.2,5.3C126.9,80,126.9,132.5,126.9,132.5z"/>
</svg>
