<?xml version="1.0" encoding="utf-8"?>
<!-- Generator: Adobe Illustrator 27.4.1, SVG Export Plug-In . SVG Version: 6.00 Build 0)  -->
<svg version="1.1" id="extension" xmlns="http://www.w3.org/2000/svg" xmlns:xlink="http://www.w3.org/1999/xlink" x="0px" y="0px"
	 viewBox="0 0 160 160" style="enable-background:new 0 0 160 160;" xml:space="preserve">
<path fill="evenodd" d="M119,10H25.7c-4.4,0-8.1,1.6-11.1,4.7s-4.6,6.8-4.6,11v108.6c0,4.2,1.5,7.9,4.6,11s6.8,4.7,11.1,4.7h108.6
	c4.2,0,7.9-1.6,11-4.7s4.7-6.8,4.7-11V41C150,41,119,10,119,10z M100.2,122.6c-2.1,3.6-5,6.5-8.6,8.6c-3.6,2.1-7.5,3.2-11.6,3.2
	s-8-1.1-11.6-3.2c-3.6-2.1-6.5-5-8.6-8.6c-2.1-3.6-3.2-7.5-3.2-11.6s1.1-8,3.2-11.6c2.1-3.6,5-6.5,8.6-8.6c3.6-2.1,7.5-3.2,11.6-3.2
	s8,1.1,11.6,3.2c3.6,2.1,6.5,5,8.6,8.6c2.1,3.6,3.2,7.5,3.2,11.6S102.3,119,100.2,122.6z M103.3,56.7H25.7v-31h77.7V56.7z"/>
</svg>
