<?xml version="1.0" encoding="utf-8"?>
<!-- Generator: Adobe Illustrator 27.5.0, SVG Export Plug-In . SVG Version: 6.00 Build 0)  -->
<svg version="1.1" id="Layer_1" xmlns="http://www.w3.org/2000/svg" xmlns:xlink="http://www.w3.org/1999/xlink" x="0px" y="0px"
	 viewBox="0 0 500 500" style="enable-background:new 0 0 500 500;" xml:space="preserve">
<style type="text/css">
	.st0{fill:#FFFFFF;}
	.st1{fill:#EEF7FE;}
	.st2{fill:#BABABA;}
	.st3{fill-rule:evenodd;clip-rule:evenodd;fill:#676766;}
	.st4{fill-rule:evenodd;clip-rule:evenodd;fill:#EEF7FE;}
	.st5{fill:#5BA0D8;}
</style>
<circle class="st0" cx="250" cy="250" r="250"/>
<g>
	<g>
		<path class="st1" d="M86.8,176.5h326.4c11.4,0,20.6,9.2,20.6,20.6v70.4c0,11.4-9.2,20.6-20.6,20.6H86.8
			c-11.4,0-20.6-9.2-20.6-20.6v-70.4C66.2,185.7,75.4,176.5,86.8,176.5z"/>
		<path class="st2" d="M413.2,181.5c8.6,0,15.6,7,15.6,15.6v70.4c0,8.6-7,15.6-15.6,15.6H86.8c-8.6,0-15.6-7-15.6-15.6v-70.4
			c0-8.6,7-15.6,15.6-15.6H413.2 M413.2,171.5H86.8c-14.1,0-25.6,11.5-25.6,25.6v70.4c0,14.1,11.5,25.6,25.6,25.6h326.4
			c14.1,0,25.6-11.5,25.6-25.6v-70.4C438.8,182.9,427.3,171.5,413.2,171.5L413.2,171.5z"/>
	</g>
	<path class="st2" d="M406.8,200.7c1.5,0,2.8,1.3,2.8,2.8v57.6c0,1.5-1.3,2.8-2.8,2.8H93.2c-1.5,0-2.8-1.3-2.8-2.8v-57.6
		c0-1.5,1.3-2.8,2.8-2.8H406.8 M406.8,190.7H93.2c-7.1,0-12.8,5.7-12.8,12.8v57.6c0,7.1,5.7,12.8,12.8,12.8h313.6
		c7.1,0,12.8-5.7,12.8-12.8v-57.6C419.6,196.4,413.9,190.7,406.8,190.7L406.8,190.7z"/>
	<path class="st3" d="M115.2,232.2c0,4,0,8,0,12c0,3.7-2.2,6.4-5.3,6.4c-3.1,0-5.3-2.6-5.3-6.4c0-8,0-15.9,0-23.9
		c0-3.8,2.2-6.5,5.4-6.5c3,0,5.2,2.7,5.2,6.5C115.2,224.3,115.2,228.3,115.2,232.2"/>
	<path class="st3" d="M135.5,232.2c0,4,0,8,0,12c0,3.7-2.2,6.4-5.3,6.4c-3.1,0-5.3-2.6-5.3-6.4c0-8,0-15.9,0-23.9
		c0-3.8,2.2-6.5,5.4-6.5c3,0,5.2,2.7,5.2,6.5C135.5,224.3,135.5,228.3,135.5,232.2"/>
	<path class="st3" d="M155.9,232.2c0,4,0,8,0,12c0,3.7-2.2,6.4-5.3,6.4c-3.1,0-5.3-2.6-5.3-6.4c0-8,0-15.9,0-23.9
		c0-3.8,2.2-6.5,5.4-6.5c3,0,5.2,2.7,5.2,6.5C155.9,224.3,155.9,228.3,155.9,232.2"/>
	<path class="st3" d="M176.3,232.2c0,4,0,8,0,12c0,3.7-2.2,6.4-5.3,6.4c-3.1,0-5.3-2.6-5.3-6.4c0-8,0-15.9,0-23.9
		c0-3.8,2.2-6.5,5.4-6.5c3,0,5.2,2.7,5.2,6.5C176.3,224.3,176.3,228.3,176.3,232.2"/>
	<path class="st3" d="M196.7,232.2c0,4,0,8,0,12c0,3.7-2.2,6.4-5.3,6.4c-3.1,0-5.3-2.6-5.3-6.4c0-8,0-15.9,0-23.9
		c0-3.8,2.2-6.5,5.4-6.5c3,0,5.2,2.7,5.2,6.5C196.7,224.3,196.7,228.3,196.7,232.2"/>
	<path class="st4" d="M301,154.7c-43.2,0-78.4,35.1-78.4,78.4s35.2,78.4,78.4,78.4s78.4-35.1,78.4-78.4S344.3,154.7,301,154.7
		L301,154.7z M301,299.4c-36.6,0-66.3-29.7-66.3-66.3s29.7-66.3,66.3-66.3s66.3,29.7,66.3,66.3S337.7,299.4,301,299.4z"/>
	<path class="st5" d="M301,171.7c33.8,0,61.3,27.5,61.3,61.3s-27.5,61.3-61.3,61.3s-61.3-27.5-61.3-61.3S267.2,171.7,301,171.7
		 M301,166.7c-36.6,0-66.3,29.7-66.3,66.3s29.7,66.3,66.3,66.3s66.3-29.7,66.3-66.3S337.7,166.7,301,166.7L301,166.7z"/>
	<path class="st5" d="M385.5,233c0-46.6-37.8-84.4-84.4-84.4s-84.4,37.8-84.4,84.4s34.5,81,78.3,84.2v25.1c-3.6,2.1-6.1,6-6.1,10.6
		v48.9c0,6.8,5.5,12.2,12.2,12.2s12.2-5.5,12.2-12.2v-48.9c0-4.5-2.5-8.5-6.1-10.6v-25.1C350.9,314.1,385.5,277.6,385.5,233
		L385.5,233z M228.7,233c0-39.9,32.4-72.3,72.3-72.3s72.3,32.4,72.3,72.3s-32.4,72.3-72.3,72.3S228.7,272.9,228.7,233L228.7,233z"/>
</g>
</svg>
