<?xml version="1.0" encoding="utf-8"?>
<!-- Generator: Adobe Illustrator 27.2.0, SVG Export Plug-In . SVG Version: 6.00 Build 0)  -->
<svg version="1.1" id="Layer_1" xmlns="http://www.w3.org/2000/svg" xmlns:xlink="http://www.w3.org/1999/xlink" 
x="0px" y="0px"
	 viewBox="0 0 500 500" 
	 style="enable-background:new 0 0 500 500;fill-rule:evenodd;clip-rule:evenodd;stroke-linejoin:round;stroke-miterlimit:2;"
	 xml:space="preserve">
<style type="text/css">
	.st0{}
	.st1{fill:#d1ebff;}
	.st2{fill:#d1ebff;}
	.st3{fill:#C9CACC;}
	.st4{fill:#456ba5;}
	.st5{fill:#ABDADF;}
	.st6{opacity:0.46;fill:#456ba5;enable-background:new    ;}
	.st7{fill:#456ba5;}
</style>
<circle style="fill:evenodd;" class="st0" cx="250" cy="250" r="250"/>
<path class="st1" d="M325.6,382.3H129.8c-18,0-32.6-14.6-32.6-32.6V153.2c0-19.6,15.9-35.5,35.5-35.5h197.5c3,0,5.5,2.5,5.5,5.5v249
	C335.6,377.8,331.1,382.3,325.6,382.3L325.6,382.3z"/>
<path class="st2" d="M129.8,377.4c-15.3,0-27.7-12.4-27.7-27.7c0-16.9,13.7-30.6,30.6-30.6h175.3V122.6h22.2c0.3,0,0.6,0.3,0.6,0.6
	v249c0,2.8-2.3,5.2-5.2,5.2H129.8L129.8,377.4z"/>
<g>
	<path class="st3" d="M129.7,345.9h195.4c2.7,0,4.9-2.2,4.9-4.9s-2.2-4.9-4.9-4.9H129.7c-2.7,0-4.9,2.2-4.9,4.9
		S127,345.9,129.7,345.9"/>
	<path class="st3" d="M129.7,363.2h195.4c2.7,0,4.9-2.2,4.9-4.9s-2.2-4.9-4.9-4.9H129.7c-2.7,0-4.9,2.2-4.9,4.9
		S127,363.2,129.7,363.2"/>
</g>
<path class="st4" d="M325.8,127.5v244.7l-0.3,0.3H129.8c-12.6,0-22.8-10.2-22.8-22.8c0-14.2,11.5-25.7,25.7-25.7h180.2V127.5H325.8
	 M330.1,117.7H303v196.4H132.6c-19.6,0-35.5,15.9-35.5,35.5c0,18,14.6,32.6,32.6,32.6h195.8c5.6,0,10.1-4.5,10.1-10.1v-249
	C335.6,120.2,333.2,117.7,330.1,117.7L330.1,117.7z"/>
<g>
	<path class="st4" d="M127.7,155.8H193c2.7,0,4.9-2.2,4.9-4.9s-2.2-4.9-4.9-4.9h-65.2c-2.7,0-4.9,2.2-4.9,4.9S125,155.8,127.7,155.8
		"/>
	<path class="st4" d="M127.7,179H193c2.7,0,4.9-2.2,4.9-4.9s-2.2-4.9-4.9-4.9h-65.2c-2.7,0-4.9,2.2-4.9,4.9S125,179,127.7,179"/>
	<path class="st4" d="M127.7,202.2H193c2.7,0,4.9-2.2,4.9-4.9s-2.2-4.9-4.9-4.9h-65.2c-2.7,0-4.9,2.2-4.9,4.9S125,202.2,127.7,202.2
		"/>
</g>
<path class="st5" d="M299.9,286.6c-34.3,0-62.2-27.9-62.2-62.2s27.9-62.2,62.2-62.2s62.2,27.9,62.2,62.2S334.2,286.6,299.9,286.6z"
	/>
<path class="st6" d="M257.6,222.6c0.9-22.5,19.5-40.6,42.2-40.6v-9.8c-28.2,0-51.1,22.4-52,50.3L257.6,222.6L257.6,222.6z"/>
<path class="st7" d="M401.4,312.2l-47.8-47.8c8.4-11.2,13.4-25,13.4-40.1c0-37.1-30.1-67.1-67.1-67.1s-67.1,30.1-67.1,67.1
	s30.1,67.1,67.1,67.1c18.5,0,35.2-7.5,47.4-19.6l47.2,47.2c1.9,1.9,5,1.9,6.9,0S403.3,314.1,401.4,312.2L401.4,312.2z M299.9,281.7
	c-31.6,0-57.3-25.7-57.3-57.3s25.7-57.3,57.3-57.3s57.3,25.7,57.3,57.3S331.5,281.7,299.9,281.7L299.9,281.7z"/>
</svg>
