<?xml version="1.0" encoding="utf-8"?>
<!-- Generator: Adobe Illustrator 27.5.0, SVG Export Plug-In . SVG Version: 6.00 Build 0)  -->
<svg version="1.1" id="extension" xmlns="http://www.w3.org/2000/svg" xmlns:xlink="http://www.w3.org/1999/xlink" x="0px" y="0px"
	 viewBox="0 0 160 160" style="enable-background:new 0 0 160 160;" xml:space="preserve">
<path d="M148.4,101.6c-1-1.1-2.3-1.6-3.8-1.6s-2.8,0.6-3.8,1.6c-1,1.1-1.6,2.4-1.6,3.8v30.5c0,0.9-0.3,1.7-0.9,2.3
	c-0.6,0.6-1.4,0.9-2.3,0.9H24.1c-0.9,0-1.7-0.3-2.3-0.9s-0.9-1.4-0.9-2.3v-30.5c0-1.5-0.5-2.7-1.6-3.8c-1-1.1-2.3-1.6-3.8-1.6
	s-2.8,0.6-3.8,1.6S10,104,10,105.5v34.8c0,2.7,0.9,5,2.8,6.9c1.9,1.9,4.2,2.8,6.9,2.8h120.6c2.7,0,5-1,6.9-2.9
	c1.9-1.9,2.8-4.2,2.8-6.8v-34.8C150,104,149.5,102.7,148.4,101.6z"/>
<path d="M56.4,45.8c1.4,0,2.6-0.6,3.7-1.7l14.7-14.6v87.7c0,1.5,0.5,2.8,1.6,3.8c1.1,1,2.3,1.5,3.7,1.5s2.6-0.5,3.7-1.5
	c1-1,1.5-2.3,1.5-3.8V29.5L100,44.2c1.1,1,2.4,1.5,3.8,1.5s2.6-0.5,3.7-1.6c1-1.1,1.5-2.3,1.5-3.7s-0.5-2.6-1.5-3.7L83.7,13.1
	c-1-1-2.2-1.5-3.7-1.5s-2.6,0.5-3.7,1.5L52.7,36.8c-1.1,1-1.7,2.2-1.7,3.7s0.5,2.7,1.6,3.7C53.7,45.2,55,45.8,56.4,45.8z"/>
</svg>
