<?xml version="1.0" encoding="UTF-8" standalone="no"?>
<!DOCTYPE svg PUBLIC "-//W3C//DTD SVG 1.1//EN" "http://www.w3.org/Graphics/SVG/1.1/DTD/svg11.dtd">
<svg width="100%" height="100%" viewBox="0 0 667 667" version="1.1" xmlns="http://www.w3.org/2000/svg" xmlnsXlink="http://www.w3.org/1999/xlink" xmlSpace="preserve" xmlnsSerif="http://www.serif.com/" style="fill-rule:evenodd;clip-rule:evenodd;stroke-linejoin:round;stroke-miterlimit:2;"><circle cx="333.333" cy="333.333" r="333.333" style="fill:#b9e1ea;fill-opacity:0.5;"/><g><g><g><path d="M177.451,144.697l132.321,-0c2.934,-0 5.335,2.401 5.335,5.335l0,188.077c0,2.935 -2.401,5.336 -5.335,5.336l-132.321,-0c-2.935,-0 -5.336,-2.401 -5.336,-5.336l0,-188.077c0,-2.934 2.401,-5.335 5.336,-5.335Z" style="fill:#d9eefa;fill-opacity:0.67;fill-rule:nonzero;"/><path d="M385.742,144.697l132.321,-0c2.935,-0 5.336,2.401 5.336,5.335l-0,77.899c-0,2.934 -2.401,5.335 -5.336,5.335l-132.321,0c-2.934,0 -5.335,-2.401 -5.335,-5.335l-0,-77.899c-0,-2.934 2.401,-5.335 5.335,-5.335Z" style="fill:#ccf8e4;fill-opacity:0.67;fill-rule:nonzero;"/><path d="M310.039,144.697l-132.588,-0c-8.804,-0 -16.007,7.203 -16.007,16.006l0,188.077c0,8.804 7.203,16.007 16.007,16.007l132.588,-0c8.803,-0 16.006,-7.203 16.006,-16.007l0,-188.077c0,-8.803 -7.203,-16.006 -16.006,-16.006Zm-5.336,198.748l-121.917,-0l0,-177.406l121.917,-0l0,177.406Z" style="fill:#6190d7;fill-opacity:0.67;fill-rule:nonzero;"/><path d="M385.742,321.291l132.321,0c2.935,0 5.336,2.401 5.336,5.336l-0,188.077c-0,2.934 -2.401,5.335 -5.336,5.335l-132.321,0c-2.934,0 -5.335,-2.401 -5.335,-5.335l-0,-188.077c-0,-2.935 2.401,-5.336 5.335,-5.336Z" style="fill:#d9eefa;fill-opacity:0.67;fill-rule:nonzero;"/><path d="M518.197,299.949l-132.588,-0c-8.804,-0 -16.007,7.203 -16.007,16.007l0,188.077c0,8.803 7.203,16.006 16.007,16.006l132.588,0c8.803,0 16.006,-7.203 16.006,-16.006l0,-188.077c0,-8.804 -7.203,-16.007 -16.006,-16.007Zm-5.336,198.748l-121.917,0l0,-177.406l121.917,0l0,177.406Z" style="fill:#6190d7;fill-opacity:0.67;fill-rule:nonzero;"/><path d="M518.063,144.697l-132.321,-0c-8.803,-0 -16.006,7.203 -16.006,16.006l-0,77.899c-0,8.803 7.203,16.006 16.006,16.006l132.321,0c8.804,0 16.007,-7.203 16.007,-16.006l-0,-77.899c-0,-8.803 -7.203,-16.006 -16.007,-16.006Zm-5.335,88.569l-121.65,0l-0,-67.227l121.65,-0l-0,67.227Z" style="fill:#2f8257;fill-opacity:0.67;fill-rule:nonzero;"/></g><g><path d="M162.489,375.744c-5.819,0 -10.591,-4.713 -10.591,-10.59c0,-5.819 4.713,-10.591 10.591,-10.591c5.877,0 10.59,4.713 10.59,10.591c-0.058,5.877 -4.771,10.59 -10.59,10.59Z" style="fill:#bd2e69;"/><path d="M302.314,354.796c-33.458,-43.233 -38.869,-96.009 -11.463,-123.474c27.639,-27.639 78.437,-20.598 123.475,11.463l-112.012,112.011Z" style="fill:#bfd1ff;"/><path d="M256.869,230.275c-4.538,-4.538 -13.964,-20.016 0,-34.039c13.616,-13.616 29.502,-4.538 34.04,-0l6.75,6.75c-7.39,3.666 -13.965,8.495 -19.842,14.255c-5.76,5.761 -10.59,12.452 -14.255,19.726l-6.693,-6.692Z" style="fill:#bfd1ff;"/><path d="M322.505,502.535l-132.028,0c14.954,-16.641 39.568,-27.114 65.985,-27.115c26.417,-0 51.089,10.415 66.043,27.115Z" style="fill:#bfd1ff;"/><path d="M383.137,323.608c-7.39,7.39 -18.213,9.194 -27.349,5.47l32.819,-32.818c3.723,9.077 1.919,19.959 -5.47,27.348Z" style="fill:#fffecf;"/><path d="M435.331,234.814c-29.268,-25.836 -64.879,-40.674 -97.58,-40.674c-6.692,0 -13.092,0.699 -19.261,1.92l-13.79,-13.79c-12.569,-12.569 -38.695,-23.042 -61.678,0c-23.741,23.741 -12.569,49.111 -0,61.679l10.181,10.183l-82.045,82.044c-2.734,-0.814 -5.586,-1.28 -8.553,-1.28c-16.642,0 -30.141,13.5 -30.141,30.142c-0,16.641 13.499,30.141 30.141,30.141c2.967,-0 5.819,-0.408 8.553,-1.28l63.716,63.832c-32.004,5.76 -58.828,24.206 -71.455,50.216c-1.454,3.083 -2.909,12.335 8.787,14.023l168.686,0c10.997,-1.105 10.299,-10.997 8.787,-14.023c-6.866,-14.198 -18.038,-26.069 -31.829,-34.971l-0,-12.219c-0,-5.412 -4.364,-9.834 -9.834,-9.834c-5.47,0 -9.833,4.364 -9.833,9.834l-0,2.502c-11.638,-4.365 -24.265,-6.866 -37.531,-7.39l-73.491,-73.374c3.433,-4.888 5.47,-10.823 5.47,-17.223c-0,-6.401 -2.037,-12.395 -5.47,-17.224l66.509,-66.508c0.814,30.84 14.721,64.879 40.731,94.381c1.804,2.037 7.39,7.389 14.256,0.407l32.76,-32.759c17.747,11.113 41.371,8.204 55.627,-6.052c15.07,-15.07 17.107,-38.345 6.11,-55.627l32.701,-32.701c6.866,-6.986 1.512,-12.513 -0.524,-14.375Zm-272.842,140.93c-5.819,0 -10.591,-4.713 -10.591,-10.59c0,-5.819 4.713,-10.591 10.591,-10.591c5.877,0 10.59,4.713 10.59,10.591c-0.058,5.877 -4.771,10.59 -10.59,10.59Zm139.825,-20.948c-33.458,-43.233 -38.869,-96.009 -11.463,-123.474c27.639,-27.639 78.437,-20.598 123.475,11.463l-112.012,112.011Zm-45.445,-124.521c-4.538,-4.538 -13.964,-20.016 0,-34.039c13.616,-13.616 29.502,-4.538 34.04,-0l6.75,6.75c-7.39,3.666 -13.965,8.495 -19.842,14.255c-5.76,5.761 -10.59,12.452 -14.255,19.726l-6.693,-6.692Zm65.636,272.26l-132.028,0c14.954,-16.641 39.568,-27.114 65.985,-27.115c26.417,-0 51.089,10.415 66.043,27.115Zm60.632,-178.927c-7.39,7.39 -18.213,9.194 -27.349,5.47l32.819,-32.818c3.723,9.077 1.919,19.959 -5.47,27.348Z" style="fill:#344268;"/></g></g></g></svg>