<?xml version="1.0" encoding="utf-8"?>
<!-- Generator: Adobe Illustrator 27.2.0, SVG Export Plug-In . SVG Version: 6.00 Build 0)  -->
<svg version="1.1" id="Layer_1" xmlns="http://www.w3.org/2000/svg" xmlns:xlink="http://www.w3.org/1999/xlink" x="0px" y="0px"
	 viewBox="0 0 427.2 500" style="enable-background:new 0 0 427.2 500;" xml:space="preserve">
<style type="text/css">
	.st0{fill:#FFFFFF80;}
</style>
<path class="st0" d="M366.1,171.1L366.1,171.1L366.1,171.1L366.1,171.1c-19-62.2-76.2-101.5-144.6-101.5
	c-83.8,0-151.8,67.9-151.8,151.8c0,67.9,44.5,125.3,106,144.7c0.7,0.2,2,0.6,2,0.6c0.1,0,0.2,0.1,0.4,0.1c0.7,0,1.2-0.5,1.2-1.2
	c0-0.5-0.4-1-0.9-1.2c0,0-1.8-0.7-2.6-1c-54.3-21-92.9-73.7-92.9-135.4c0-80.2,65-145.1,145.1-145.1c60.5,0,111.9,31.9,133.7,84.4
	c0.7,1.8,2.2,5.5,2.3,5.5c0.2,0.4,0.5,0.7,1,0.7c0.7,0,1.3-0.6,1.2-1.2C366.2,171.8,366.1,171.4,366.1,171.1L366.1,171.1z"/>
<path class="st0" d="M427.1,171.2L427.1,171.2C408.2,71.2,321.3,0,215.9,0C96.6,0,0,96.6,0,215.9c0,101.5,74.2,186.6,168.6,209.7
	c2.6,0.6,7.9,1.8,7.9,1.8c0.1,0,0.2,0,0.3,0c0.7,0,1.2-0.5,1.2-1.2c0-0.5-0.3-1-0.8-1.1c-0.1,0-1.6-0.4-2.2-0.6
	c-87.6-23.9-156.2-104-156.2-199.2c0-114,92.4-206.5,206.5-206.5c94.8,0,173.8,60.5,198,147.4c0.6,2.1,1.7,6.2,1.7,6.2
	c0.2,0.4,0.5,0.8,1,0.8c0.7,0,1.3-0.6,1.2-1.2C427.2,171.6,427.1,171.4,427.1,171.2L427.1,171.2z"/>
<path class="st0" d="M220.6,297.5c0,0-30.5-17.6-29.1-34.5c4.2,4.5,6.2,5.4,8.5,5.7c-6.8-19.2-5.4-32.2,3.5-50.4s22-18.8,22-18.8
	s-0.9,13.6,3.4,22.5c4.7,9.5,17.8,15.9,17.8,15.9s-2.3-13.9,9.7-23.2c3.7,18.1,18.5,11.6,21.4,28.2c2.7,15.2-4.4,23.1-20.2,41.4
	c26.4-18.2,50.9-31.1,52.1-61.6c1.3-33.2-11.2-35.2-22-49.8c-8.5-11.5-4.2-21.8-4.2-21.8s-6.5-0.5-12.6,13.4
	c-5.5,12.5,2,23.4,2,23.4s-11.7-1.9-19.6-17.6c-7.6-15-0.7-38.4-0.7-38.4s-26.6,23.2-43.1,44.7c-10.3,13.4-25.5,48.7-25.5,48.7
	s-4.5-8.5-3.3-21.5c-0.7,1-16,27.5-15.4,48.8C166,276,181.5,289.6,220.6,297.5L220.6,297.5z"/>
<g>
	<path class="st0" d="M259.7,370.8c0.5,0.6,0.9,1.2,1.4,1.8l47.3-20.9c-0.1-0.6-0.2-1.2-0.3-1.8l-6.1-43.6
		c-2.2-7.9-10.1-12.6-16.5-9.8l-49.9,22c-6.4,2.8-8.3,11.8-3.9,18.8L259.7,370.8L259.7,370.8z"/>
	<path class="st0" d="M275.8,393.8c1.2,2,2.4,4,3.5,6.1l49.5,92.8c4.4,7.1,11.2,8.6,16.4,6.3c5.1-2.3,8.6-8.3,6.4-16.4l-35.1-98.8
		c-0.8-2.3-1.6-4.6-2.3-7L275.8,393.8L275.8,393.8z"/>
</g>
</svg>
